<?xml version="1.0" encoding="utf-8"?>
<!-- Generator: Adobe Illustrator 19.2.1, SVG Export Plug-In . SVG Version: 6.00 Build 0)  -->
<svg version="1.1" id="Layer_1" xmlns="http://www.w3.org/2000/svg" xmlns:xlink="http://www.w3.org/1999/xlink" x="0px" y="0px"
	 viewBox="0 0 24 24" style="enable-background:new 0 0 24 24;" xml:space="preserve">
<style type="text/css">
	.st0{fill:#FFFFFF;}
</style>
<path class="st0" d="M21,6.9h-0.2c-0.2-4.1-1.9-6.2-5.1-6.2c-3.2,0-4.9,2.1-5.1,6.2h-0.1c-1.1,0-2,0.9-2,2v7.5
	c0,1.1,2.8,3.8,7.2,3.8s7.2-2.7,7.2-3.8V8.9C23,7.8,22.1,6.9,21,6.9z M16.6,13.7v2.2c0,0.4-0.3,0.7-0.7,0.7h-0.2
	c-0.4,0-0.7-0.3-0.7-0.7v-2.2c-0.5-0.3-0.9-0.9-0.9-1.5c0-0.9,0.8-1.7,1.7-1.7s1.7,0.8,1.7,1.7C17.5,12.8,17.1,13.4,16.6,13.7z
	 M12.7,6.9c0.2-3.7,1.7-4.2,3.1-4.2c1.5,0,2.9,0.5,3.1,4.2H12.7z"/>
</svg>
