<?xml version="1.0" encoding="utf-8"?>
<!-- Generator: Adobe Illustrator 19.2.1, SVG Export Plug-In . SVG Version: 6.00 Build 0)  -->
<svg version="1.1" id="Layer_1" xmlns="http://www.w3.org/2000/svg" xmlns:xlink="http://www.w3.org/1999/xlink" x="0px" y="0px"
	 viewBox="0 0 24 24" style="enable-background:new 0 0 24 24;" xml:space="preserve">
<style type="text/css">
	.st0{fill:#FFFFFF;}
</style>
<path class="st0" d="M16.9,11.4H8.5l0-4.6c0.2-3.9,1.7-4.4,3.1-4.4c1.5,0,2.9,0.5,3.1,4.4c0,0.6,0.5,1,1,1c0.6,0,1-0.5,1-1
	c-0.2-4.2-1.9-6.3-5.1-6.3c-3.2,0-5,2.1-5.1,6.4v4.6H6.4c-1.1,0-2,0.9-2,2v7.5c0,1.1,2.8,3.8,7.2,3.8s7.2-2.7,7.2-3.8v-7.5
	C18.9,12.3,18,11.4,16.9,11.4z M12.5,18.2v2.2c0,0.4-0.3,0.7-0.7,0.7h-0.2c-0.4,0-0.7-0.3-0.7-0.7v-2.2c-0.5-0.3-0.9-0.9-0.9-1.5
	c0-0.9,0.8-1.7,1.7-1.7s1.7,0.8,1.7,1.7C13.4,17.4,13,17.9,12.5,18.2z"/>
</svg>
