<?xml version="1.0" encoding="iso-8859-1"?>
<!-- Generator: Adobe Illustrator 19.1.0, SVG Export Plug-In . SVG Version: 6.00 Build 0)  -->
<!DOCTYPE svg PUBLIC "-//W3C//DTD SVG 1.1//EN" "http://www.w3.org/Graphics/SVG/1.1/DTD/svg11.dtd">
<svg version="1.1" id="Layer_1" xmlns="http://www.w3.org/2000/svg" xmlns:xlink="http://www.w3.org/1999/xlink" x="0px" y="0px"
	 viewBox="0 0 229.87 89.113" style="enable-background:new 0 0 229.87 89.113;" xml:space="preserve">
<g>
	<g>
		<path style="fill:#231F20;" d="M40.214,65.728l5.261-19.213c0.215-0.784,0.372-1.401,0.469-1.851
			c0.196-0.841,0.294-1.43,0.294-1.764c0-0.724-0.226-1.174-0.675-1.351c-0.452-0.177-1.323-0.284-2.614-0.324v-1.587
			c2.491-0.156,4.43-0.333,5.812-0.527c1.382-0.195,3.447-0.559,6.191-1.087l-3.565,11.134l0.159,0.088
			c-0.099,0.098,0.493-0.798,1.774-2.688c1.28-1.891,2.501-3.422,3.665-4.597c1.143-1.195,2.338-2.15,3.591-2.865
			c1.251-0.715,2.565-1.072,3.944-1.072c1.28,0,2.37,0.362,3.266,1.087c0.897,0.724,1.346,1.909,1.346,3.554
			c0,1.527-0.881,4.897-2.646,10.107c-1.786,5.191-2.679,7.972-2.679,8.344c0,0.352,0.106,0.621,0.323,0.807
			c0.215,0.188,0.431,0.279,0.646,0.279c0.528,0,1.311-0.665,2.352-1.997c0.546-0.706,1.144-1.576,1.792-2.614l1.321,0.85
			c-1.47,2.409-2.717,4.143-3.742,5.201c-1.777,1.822-3.663,2.732-5.655,2.732c-1.062,0-2.016-0.313-2.864-0.94
			c-0.845-0.626-1.269-1.616-1.269-2.966c0-0.862,0.207-2.116,0.617-3.761c0.413-1.646,0.883-3.34,1.414-5.083l2.748-8.99
			c0.06-0.216,0.108-0.401,0.146-0.559c0.04-0.156,0.06-0.312,0.06-0.47c0-0.45-0.151-0.763-0.454-0.94
			c-0.3-0.176-0.626-0.264-0.975-0.264c-1.228,0-2.587,0.956-4.087,2.865c-1.496,1.91-2.722,3.814-3.674,5.713
			c-1.03,2.058-1.892,4.143-2.58,6.259c-0.688,2.114-1.508,4.945-2.465,8.49H40.214z"/>
		<path style="fill:#231F20;" d="M73.399,60.645c0.127-0.665,0.386-1.703,0.779-3.113l4.47-16.335h-3.062v-2.055
			c1.996-0.805,3.674-1.685,5.036-2.646c2.408-1.684,4.423-3.848,6.044-6.492h2.172l-2.387,8.726h4.317v2.468h-5.022l-3.883,13.955
			c-0.349,1.234-0.62,2.263-0.814,3.085c-0.332,1.411-0.498,2.379-0.498,2.909c0,0.373,0.112,0.617,0.337,0.734
			c0.225,0.118,0.415,0.176,0.572,0.176c0.568,0,1.297-0.488,2.19-1.468c0.891-0.978,1.71-2.096,2.456-3.349l1.322,0.852
			c-1.786,2.703-3.22,4.582-4.298,5.641c-1.827,1.762-3.759,2.644-5.802,2.644c-1.176,0-2.158-0.386-2.943-1.16
			c-0.783-0.773-1.175-1.758-1.175-2.954C73.209,61.85,73.272,61.312,73.399,60.645z"/>
		<path style="fill:#231F20;" d="M95.712,44.304c3.605-4.227,7.562-6.339,11.871-6.339c1.86,0,3.402,0.459,4.626,1.379
			c1.225,0.918,1.835,2.219,1.835,3.9c0,2.54-1.43,4.945-4.288,7.214c-2.86,2.268-6.572,3.715-11.136,4.34
			c-0.116,0.606-0.205,1.176-0.262,1.704c-0.06,0.528-0.09,0.96-0.09,1.292c0,1.233,0.176,2.204,0.529,2.91
			c0.627,1.312,1.831,1.967,3.614,1.967c1.45,0,2.889-0.743,4.319-2.231c0.763-0.784,1.587-1.87,2.468-3.261l1.765,1.028
			c-1.51,2.527-2.93,4.377-4.263,5.552c-2.114,1.881-4.594,2.822-7.433,2.822c-2.114,0-4.108-0.769-5.978-2.305
			c-1.871-1.536-2.805-3.878-2.805-7.028C90.484,52.708,92.225,48.393,95.712,44.304z M108.199,40.651
			c-0.255-0.479-0.716-0.718-1.381-0.718c-1.411,0-2.795,1.133-4.156,3.4c-1.363,2.267-2.572,5.442-3.628,9.527
			c3.467-0.782,5.922-2.286,7.374-4.515c1.45-2.227,2.174-4.211,2.174-5.95C108.581,41.712,108.453,41.129,108.199,40.651z"/>
		<path style="fill:#231F20;" d="M147.7,25.39c2.184,0.587,3.49,0.881,3.921,0.881c0.626,0,1.096-0.156,1.41-0.471
			c0.315-0.313,0.618-0.743,0.912-1.293h1.821l-3.055,14.074l-1.879-0.353c0.056-0.841,0.091-1.336,0.102-1.483
			c0.008-0.146,0.014-0.368,0.014-0.661c0-3.173-0.743-5.533-2.232-7.08c-1.489-1.547-3.379-2.32-5.671-2.32
			c-4.661,0-8.715,3.095-12.162,9.284c-3.096,5.523-4.643,11.155-4.643,16.893c0,4.171,0.955,7.026,2.865,8.564
			c1.91,1.538,3.989,2.306,6.243,2.306c2.936,0,5.709-0.97,8.313-2.908c1.412-1.058,2.82-2.478,4.231-4.26l1.822,1.323
			c-2.077,3.054-4.545,5.327-7.404,6.815c-2.858,1.488-5.757,2.232-8.695,2.232c-4.82,0-8.8-1.415-11.942-4.245
			c-3.145-2.83-4.716-6.615-4.716-11.355c0-7.247,2.409-13.524,7.229-18.833c4.818-5.326,10.537-7.992,17.157-7.992
			C143.394,24.508,145.514,24.802,147.7,25.39z"/>
		<path style="fill:#231F20;" d="M158.595,45.104c3.64-4.759,7.34-7.139,11.096-7.139c1.526,0,2.651,0.451,3.375,1.351
			c0.43,0.549,0.812,1.469,1.145,2.762l1.02-3.202l6.283-0.441l-3.919,14.073c-0.559,1.998-0.953,3.526-1.188,4.584
			c-0.529,2.017-0.794,3.456-0.794,4.318c0,0.352,0.079,0.597,0.236,0.734c0.156,0.137,0.332,0.205,0.529,0.205
			c0.352,0,0.695-0.132,1.029-0.396c0.331-0.264,0.705-0.641,1.116-1.131c0.195-0.216,0.526-0.621,0.999-1.219
			c0.47-0.598,0.862-1.102,1.175-1.513L181.957,59c-1.626,2.389-3.177,4.259-4.657,5.611c-1.478,1.352-2.971,2.027-4.48,2.027
			c-0.92,0-1.812-0.343-2.674-1.028c-0.862-0.686-1.292-1.695-1.292-3.026c0-0.51,0.253-1.752,0.763-3.731
			c0.079-0.077,0.005,0.059-0.22,0.411c-0.224,0.354-0.573,0.872-1.043,1.558c-1.057,1.606-2.306,2.967-3.746,4.083
			c-1.439,1.117-3.04,1.676-4.804,1.676c-1.585,0-3.064-0.599-4.436-1.793c-1.371-1.194-2.056-3.221-2.056-6.081
			C153.313,54.28,155.074,49.745,158.595,45.104z M172.515,41.842c-0.372-0.9-1.066-1.352-2.084-1.352
			c-2.172,0-4.402,2.575-6.691,7.727c-2.016,4.564-3.023,8.061-3.023,10.489c0,0.959,0.24,1.792,0.719,2.497
			c0.48,0.704,1.109,1.057,1.893,1.057c1.996,0.021,4.255-2.624,6.78-7.932c1.799-4.446,2.699-7.971,2.699-10.577
			C172.808,42.969,172.711,42.333,172.515,41.842z"/>
		<path style="fill:#231F20;" d="M183.397,65.728c1.655-5.738,3.006-10.675,4.056-14.806c1.212-4.446,1.821-7.09,1.821-7.933
			c0-0.743-0.246-1.224-0.736-1.439c-0.489-0.216-1.332-0.324-2.526-0.324v-1.587c2.562-0.156,4.725-0.362,6.49-0.617
			c1.141-0.156,3.085-0.489,5.828-0.998l-3.346,10.665l0.265,0.058c1.72-3.33,3.1-5.69,4.138-7.08
			c1.82-2.429,3.571-3.644,5.255-3.644c1.174,0,2.041,0.392,2.598,1.175c0.558,0.784,0.836,1.655,0.836,2.616
			c0,1.155-0.309,2.193-0.925,3.113c-0.618,0.921-1.473,1.381-2.571,1.381c-0.49,0-0.944-0.098-1.365-0.293
			c-0.421-0.197-0.779-0.49-1.075-0.882l-0.557-0.705c-0.098-0.117-0.2-0.215-0.309-0.294c-0.106-0.078-0.25-0.117-0.424-0.117
			c-0.764,0-1.762,1.039-2.998,3.114c-1.232,2.077-2.271,4.192-3.113,6.346c-0.587,1.488-1.314,3.605-2.174,6.346
			c-0.862,2.743-1.501,4.711-1.912,5.905H183.397z"/>
		<path style="fill:#231F20;" d="M211.537,44.304c3.604-4.227,7.56-6.339,11.868-6.339c1.861,0,3.405,0.459,4.628,1.379
			c1.222,0.918,1.836,2.219,1.836,3.9c0,2.54-1.43,4.945-4.289,7.214c-2.859,2.268-6.57,3.715-11.134,4.34
			c-0.119,0.606-0.207,1.176-0.265,1.704c-0.059,0.528-0.088,0.96-0.088,1.292c0,1.233,0.176,2.204,0.529,2.91
			c0.626,1.312,1.831,1.967,3.615,1.967c1.449,0,2.886-0.743,4.317-2.231c0.765-0.784,1.587-1.87,2.467-3.261l1.765,1.028
			c-1.509,2.527-2.93,4.377-4.261,5.552c-2.115,1.881-4.592,2.822-7.431,2.822c-2.117,0-4.11-0.769-5.98-2.305
			c-1.869-1.536-2.806-3.878-2.806-7.028C206.307,52.708,208.049,48.393,211.537,44.304z M224.021,40.651
			c-0.252-0.479-0.713-0.718-1.378-0.718c-1.411,0-2.797,1.133-4.159,3.4c-1.36,2.267-2.569,5.442-3.628,9.527
			c3.467-0.782,5.925-2.286,7.376-4.515c1.449-2.227,2.173-4.211,2.173-5.95C224.405,41.712,224.278,41.129,224.021,40.651z"/>
	</g>
	<radialGradient id="SVGID_1_" cx="11.0999" cy="7.07" r="15.5663" gradientUnits="userSpaceOnUse">
		<stop  offset="0" style="stop-color:#FFFFFF"/>
		<stop  offset="1" style="stop-color:#005CB9"/>
	</radialGradient>
	<circle style="fill:url(#SVGID_1_);" cx="15.077" cy="13.256" r="13.256"/>
	<path style="fill:#005CB9;" d="M43.121,81.638c-0.105-0.063-0.281-0.162-0.579-0.336c-0.768-0.448-0.482-0.3-1.214-0.956
		c-1.627-1.456-3.001-3.198-4.288-4.955c-3.413-4.664-5.79-10.024-7.357-15.568C25.479,44.951,30.95,31.455,44.288,23.7
		c1.902-1.105,3.641-3.925,1.005-5.322c-2.771-1.469-6.467-0.378-8.982,1.082c-9.588,5.574-16.308,13.479-19.157,22.855
		c-2.557-4.37-6.09-8.074-10.75-9.858c-1.66-0.636-3.553-0.353-5.051,0.608c-0.877,0.562-2.228,2.356-0.565,2.993
		c8.146,3.119,11.955,12.317,13.773,20.22c2.045,8.892,1.448,19.294-4.252,26.75c-2.052,2.685,5.163,2.274,6.666,0.31
		c2.027-2.652,3.436-5.61,4.356-8.726c3.567,7.116,8.882,13.742,15.784,14.462c2.806,0.292,6.767-1.074,8.32-3.555
		C46.8,83.34,44.982,82.129,43.121,81.638z"/>
</g>
</svg>
